<svg width="59" height="50" viewBox="0 0 59 50" fill="none" xmlns="http://www.w3.org/2000/svg">
<path d="M8.09204 38.0257C8.73132 37.0607 10.5 37.3551 10.7557 37.3987C11.8212 37.5895 12.3539 38.1293 13.9521 39.3505C14.8471 40.0265 15.7847 40.648 16.6957 41.3077C18.8266 42.8669 22.6409 43.5484 25.9439 42.7361C30.3655 41.6457 34.686 36.8862 34.6487 31.6525C34.5584 28.7272 33.392 25.9447 31.3831 23.8617C30.3176 22.9077 29.2521 22.3298 27.0306 21.6319L16.3334 18.29C13.6697 17.4558 13.105 16.3545 12.7055 15.6949C11.395 13.5414 12.0396 10.9408 12.3432 9.9377C13.1007 8.43528 14.078 7.06009 15.2413 5.8597C15.2413 5.8597 21.9484 -1.02599 37.0034 2.18515C38.511 2.50136 40.0559 3.07925 40.7325 4.4095C40.8284 4.60032 41.2386 5.42356 40.9136 5.9851C40.3383 6.99369 37.8131 6.45941 36.6518 6.26859C30.9835 5.32542 23.179 6.78107 21.6021 10.3139C20.8456 12.004 21.6447 13.8903 21.7832 14.2065C23.6638 18.6116 29.934 17.3468 34.4782 20.7051C39.9174 24.7231 42.3999 34.9945 38.6495 41.4931C33.5086 50.396 18.4057 49.1529 11.4429 43.7174C10.3394 42.854 9.34451 41.8542 8.48093 40.7407C8.1826 40.1846 7.53267 38.8762 8.09204 38.0257Z" fill="white"/>
<path d="M0 0.560624V49.9872C6.52583 50.1852 12.9201 48.0834 18.1129 44.0338C20.1266 42.4364 27.457 36.4012 28.4479 25.8464C28.6876 23.3385 29.1884 13.9504 22.2842 6.73213C13.4568 -2.50332 0.687224 0.391617 0 0.560624Z" fill="white"/>
<path d="M4.1709 5.24365V40.6807C8.68378 40.7701 13.0494 39.0367 16.3225 35.8558C21.5326 30.6875 21.4314 24.0253 21.3994 22.9568C21.1793 19.9232 20.2512 16.9879 18.6932 14.3973C14.0584 6.76473 5.56133 5.43992 4.1709 5.24365Z" fill="#0E0E0E"/>
<path d="M32.0427 7.78872C32.1931 7.5251 34.9984 2.81468 41.0486 2.31728C43.3202 2.16778 45.5916 2.6097 47.5671 3.58555C49.5426 4.56139 51.1309 6.02598 52.1252 7.78872C48.5853 18.3304 45.0416 28.8704 41.494 39.4087L58.0366 41.3138V46.3923C49.4438 47.7495 40.6355 47.7495 32.0427 46.3923C34.582 40.8462 37.0749 34.8724 39.429 28.4857C41.6212 22.5169 43.4779 16.7868 45.0396 11.3402C44.9587 11.0119 44.1662 7.99764 41.3436 7.02273C38.3069 5.9732 33.8936 7.62955 32.0427 11.4695V7.78872Z" fill="#20B46A"/>
</svg>
