<svg width="264" height="50" viewBox="0 0 264 50" fill="none" xmlns="http://www.w3.org/2000/svg">
<path d="M73.6307 34H65.8963V12.1818H73.6946C75.8892 12.1818 77.7784 12.6186 79.3622 13.4922C80.946 14.3587 82.1641 15.6051 83.0163 17.2315C83.8757 18.858 84.3054 20.804 84.3054 23.0696C84.3054 25.3423 83.8757 27.2955 83.0163 28.929C82.1641 30.5625 80.9389 31.8161 79.3409 32.6896C77.75 33.5632 75.8466 34 73.6307 34ZM70.5092 30.0476H73.4389C74.8026 30.0476 75.9496 29.8061 76.88 29.3232C77.8175 28.8331 78.5206 28.0767 78.9893 27.054C79.4652 26.0241 79.7031 24.696 79.7031 23.0696C79.7031 21.4574 79.4652 20.1399 78.9893 19.1172C78.5206 18.0945 77.821 17.3416 76.8906 16.8587C75.9602 16.3757 74.8132 16.1342 73.4496 16.1342H70.5092V30.0476ZM95.0946 34.3196C93.4114 34.3196 91.9625 33.9787 90.748 33.2969C89.5407 32.608 88.6103 31.6349 87.9569 30.3778C87.3034 29.1136 86.9767 27.6186 86.9767 25.8928C86.9767 24.2095 87.3034 22.7322 87.9569 21.4609C88.6103 20.1896 89.53 19.1989 90.7161 18.4886C91.9093 17.7784 93.3084 17.4233 94.9135 17.4233C95.9931 17.4233 96.998 17.5973 97.9284 17.9453C98.8659 18.2862 99.6827 18.8011 100.379 19.4901C101.082 20.179 101.629 21.0455 102.019 22.0895C102.41 23.1264 102.605 24.3409 102.605 25.733V26.9794H88.7878V24.1669H98.3333C98.3333 23.5135 98.1912 22.9347 97.9071 22.4304C97.623 21.9261 97.2289 21.532 96.7246 21.2479C96.2275 20.9567 95.6486 20.8111 94.9881 20.8111C94.2992 20.8111 93.6884 20.9709 93.1557 21.2905C92.6301 21.603 92.2182 22.0256 91.9199 22.5582C91.6216 23.0838 91.4689 23.6697 91.4618 24.3161V26.9901C91.4618 27.7997 91.611 28.4993 91.9093 29.0888C92.2147 29.6783 92.6444 30.1328 93.1983 30.4524C93.7523 30.772 94.4093 30.9318 95.1692 30.9318C95.6735 30.9318 96.1351 30.8608 96.5542 30.7188C96.9732 30.5767 97.3319 30.3636 97.6301 30.0795C97.9284 29.7955 98.1557 29.4474 98.312 29.0355L102.509 29.3125C102.296 30.321 101.86 31.2017 101.199 31.9545C100.546 32.7003 99.7005 33.2827 98.6635 33.7017C97.6337 34.1136 96.4441 34.3196 95.0946 34.3196ZM119.182 22.3026L115.027 22.5582C114.956 22.2031 114.803 21.8835 114.569 21.5994C114.335 21.3082 114.026 21.0774 113.642 20.907C113.266 20.7294 112.815 20.6406 112.289 20.6406C111.586 20.6406 110.993 20.7898 110.51 21.0881C110.027 21.3793 109.786 21.7699 109.786 22.2599C109.786 22.6506 109.942 22.9808 110.254 23.2507C110.567 23.5206 111.103 23.7372 111.863 23.9006L114.825 24.4972C116.416 24.8239 117.602 25.3494 118.383 26.0739C119.164 26.7983 119.555 27.75 119.555 28.929C119.555 30.0014 119.239 30.9425 118.607 31.7521C117.982 32.5618 117.122 33.1939 116.029 33.6484C114.942 34.0959 113.688 34.3196 112.268 34.3196C110.102 34.3196 108.376 33.8686 107.09 32.9666C105.812 32.0575 105.063 30.8217 104.843 29.2592L109.306 29.0249C109.441 29.6854 109.768 30.1896 110.286 30.5376C110.805 30.8786 111.469 31.049 112.279 31.049C113.074 31.049 113.713 30.8963 114.196 30.5909C114.686 30.2784 114.935 29.8771 114.942 29.3871C114.935 28.9751 114.761 28.6378 114.42 28.375C114.079 28.1051 113.553 27.8991 112.843 27.7571L110.009 27.1925C108.411 26.8729 107.222 26.3189 106.441 25.5305C105.666 24.7422 105.279 23.7372 105.279 22.5156C105.279 21.4645 105.563 20.5589 106.132 19.799C106.707 19.0391 107.513 18.4531 108.55 18.0412C109.594 17.6293 110.816 17.4233 112.215 17.4233C114.281 17.4233 115.908 17.8601 117.094 18.7337C118.287 19.6072 118.983 20.7969 119.182 22.3026ZM122.413 34V17.6364H126.951V34H122.413ZM124.692 15.527C124.018 15.527 123.439 15.3033 122.956 14.8558C122.48 14.4013 122.242 13.858 122.242 13.2259C122.242 12.6009 122.48 12.0646 122.956 11.6172C123.439 11.1626 124.018 10.9354 124.692 10.9354C125.367 10.9354 125.942 11.1626 126.418 11.6172C126.901 12.0646 127.143 12.6009 127.143 13.2259C127.143 13.858 126.901 14.4013 126.418 14.8558C125.942 15.3033 125.367 15.527 124.692 15.527ZM137.959 40.4773C136.488 40.4773 135.228 40.2749 134.177 39.87C133.133 39.4723 132.302 38.929 131.684 38.2401C131.066 37.5511 130.665 36.777 130.48 35.9176L134.677 35.353C134.805 35.6797 135.008 35.9851 135.285 36.2692C135.562 36.5533 135.927 36.7805 136.382 36.951C136.844 37.1286 137.405 37.2173 138.065 37.2173C139.052 37.2173 139.866 36.9759 140.505 36.4929C141.151 36.017 141.474 35.218 141.474 34.0959V31.1023H141.282C141.084 31.5568 140.785 31.9865 140.388 32.3913C139.99 32.7962 139.479 33.1264 138.854 33.3821C138.229 33.6378 137.483 33.7656 136.616 33.7656C135.388 33.7656 134.269 33.4815 133.26 32.9134C132.259 32.3381 131.46 31.4609 130.863 30.282C130.274 29.0959 129.979 27.5973 129.979 25.7862C129.979 23.9325 130.281 22.3842 130.885 21.1413C131.488 19.8984 132.291 18.968 133.292 18.3501C134.301 17.7322 135.405 17.4233 136.606 17.4233C137.522 17.4233 138.289 17.5795 138.907 17.892C139.525 18.1974 140.022 18.581 140.398 19.0426C140.782 19.4972 141.077 19.9446 141.282 20.3849H141.453V17.6364H145.959V34.1598C145.959 35.5518 145.618 36.7166 144.937 37.6541C144.255 38.5916 143.31 39.2947 142.103 39.7635C140.903 40.2393 139.521 40.4773 137.959 40.4773ZM138.055 30.3565C138.786 30.3565 139.404 30.1754 139.908 29.8132C140.42 29.4439 140.81 28.9183 141.08 28.2365C141.357 27.5476 141.496 26.7237 141.496 25.7649C141.496 24.8061 141.361 23.9751 141.091 23.272C140.821 22.5618 140.43 22.0114 139.919 21.6207C139.407 21.2301 138.786 21.0348 138.055 21.0348C137.309 21.0348 136.68 21.2372 136.169 21.642C135.657 22.0398 135.27 22.5937 135.008 23.304C134.745 24.0142 134.613 24.8345 134.613 25.7649C134.613 26.7095 134.745 27.5263 135.008 28.2152C135.278 28.897 135.665 29.4261 136.169 29.8026C136.68 30.1719 137.309 30.3565 138.055 30.3565ZM154.109 24.5398V34H149.571V17.6364H153.896V20.5234H154.088C154.45 19.5717 155.057 18.8189 155.91 18.2649C156.762 17.7038 157.795 17.4233 159.01 17.4233C160.146 17.4233 161.137 17.6719 161.982 18.169C162.827 18.6662 163.484 19.3764 163.953 20.2997C164.422 21.2159 164.656 22.3097 164.656 23.581V34H160.118V24.3906C160.125 23.3892 159.869 22.608 159.351 22.0469C158.832 21.4787 158.118 21.1946 157.209 21.1946C156.599 21.1946 156.059 21.326 155.59 21.5888C155.128 21.8516 154.766 22.2351 154.503 22.7393C154.248 23.2365 154.116 23.8366 154.109 24.5398ZM180.154 18.4567C180.069 17.5973 179.703 16.9297 179.057 16.4538C178.411 15.978 177.533 15.7401 176.425 15.7401C175.673 15.7401 175.037 15.8466 174.518 16.0597C174 16.2656 173.602 16.5533 173.325 16.9226C173.055 17.2919 172.92 17.7109 172.92 18.1797C172.906 18.5703 172.988 18.9112 173.165 19.2024C173.35 19.4936 173.602 19.7457 173.922 19.9588C174.241 20.1648 174.611 20.3459 175.03 20.5021C175.449 20.6513 175.896 20.7791 176.372 20.8857L178.332 21.3544C179.284 21.5675 180.158 21.8516 180.953 22.2067C181.749 22.5618 182.438 22.9986 183.02 23.517C183.602 24.0355 184.053 24.6463 184.373 25.3494C184.7 26.0526 184.866 26.8587 184.874 27.7678C184.866 29.103 184.526 30.2607 183.851 31.2408C183.183 32.2138 182.217 32.9702 180.953 33.5099C179.696 34.0426 178.18 34.3089 176.404 34.3089C174.643 34.3089 173.109 34.0391 171.802 33.4993C170.502 32.9595 169.487 32.1605 168.755 31.1023C168.031 30.0369 167.651 28.7195 167.615 27.1499H172.079C172.129 27.8814 172.338 28.4922 172.707 28.9822C173.084 29.4652 173.585 29.831 174.21 30.0795C174.842 30.321 175.555 30.4418 176.351 30.4418C177.132 30.4418 177.81 30.3281 178.386 30.1009C178.968 29.8736 179.419 29.5575 179.739 29.1527C180.058 28.7479 180.218 28.2827 180.218 27.7571C180.218 27.267 180.072 26.8551 179.781 26.5213C179.497 26.1875 179.078 25.9034 178.524 25.669C177.977 25.4347 177.306 25.2216 176.511 25.0298L174.135 24.4332C172.295 23.9858 170.843 23.2862 169.778 22.3345C168.712 21.3828 168.183 20.1009 168.19 18.4886C168.183 17.1676 168.535 16.0135 169.245 15.0263C169.962 14.0391 170.946 13.2685 172.196 12.7145C173.446 12.1605 174.866 11.8835 176.457 11.8835C178.077 11.8835 179.49 12.1605 180.697 12.7145C181.912 13.2685 182.857 14.0391 183.531 15.0263C184.206 16.0135 184.554 17.157 184.575 18.4567H180.154ZM187.891 34V17.6364H192.43V34H187.891ZM190.171 15.527C189.496 15.527 188.917 15.3033 188.434 14.8558C187.959 14.4013 187.721 13.858 187.721 13.2259C187.721 12.6009 187.959 12.0646 188.434 11.6172C188.917 11.1626 189.496 10.9354 190.171 10.9354C190.846 10.9354 191.421 11.1626 191.897 11.6172C192.38 12.0646 192.621 12.6009 192.621 13.2259C192.621 13.858 192.38 14.4013 191.897 14.8558C191.421 15.3033 190.846 15.527 190.171 15.527ZM204.769 17.6364V21.0455H194.914V17.6364H204.769ZM197.152 13.7159H201.69V28.9716C201.69 29.3906 201.754 29.7173 201.882 29.9517C202.01 30.179 202.187 30.3388 202.414 30.4311C202.649 30.5234 202.919 30.5696 203.224 30.5696C203.437 30.5696 203.65 30.5518 203.863 30.5163C204.076 30.4737 204.24 30.4418 204.353 30.4205L205.067 33.7976C204.84 33.8686 204.52 33.9503 204.108 34.0426C203.696 34.142 203.196 34.2024 202.606 34.2237C201.512 34.2663 200.554 34.1207 199.73 33.7869C198.913 33.4531 198.277 32.9347 197.823 32.2315C197.368 31.5284 197.145 30.6406 197.152 29.5682V13.7159ZM215.007 34.3196C213.324 34.3196 211.875 33.9787 210.66 33.2969C209.453 32.608 208.522 31.6349 207.869 30.3778C207.216 29.1136 206.889 27.6186 206.889 25.8928C206.889 24.2095 207.216 22.7322 207.869 21.4609C208.522 20.1896 209.442 19.1989 210.628 18.4886C211.821 17.7784 213.221 17.4233 214.826 17.4233C215.905 17.4233 216.91 17.5973 217.841 17.9453C218.778 18.2862 219.595 18.8011 220.291 19.4901C220.994 20.179 221.541 21.0455 221.931 22.0895C222.322 23.1264 222.517 24.3409 222.517 25.733V26.9794H208.7V24.1669H218.245C218.245 23.5135 218.103 22.9347 217.819 22.4304C217.535 21.9261 217.141 21.532 216.637 21.2479C216.14 20.9567 215.561 20.8111 214.9 20.8111C214.211 20.8111 213.6 20.9709 213.068 21.2905C212.542 21.603 212.13 22.0256 211.832 22.5582C211.534 23.0838 211.381 23.6697 211.374 24.3161V26.9901C211.374 27.7997 211.523 28.4993 211.821 29.0888C212.127 29.6783 212.556 30.1328 213.11 30.4524C213.664 30.772 214.321 30.9318 215.081 30.9318C215.586 30.9318 216.047 30.8608 216.466 30.7188C216.885 30.5767 217.244 30.3636 217.542 30.0795C217.841 29.7955 218.068 29.4474 218.224 29.0355L222.422 29.3125C222.208 30.321 221.772 31.2017 221.111 31.9545C220.458 32.7003 219.613 33.2827 218.576 33.7017C217.546 34.1136 216.356 34.3196 215.007 34.3196ZM239.094 22.3026L234.939 22.5582C234.868 22.2031 234.716 21.8835 234.481 21.5994C234.247 21.3082 233.938 21.0774 233.554 20.907C233.178 20.7294 232.727 20.6406 232.201 20.6406C231.498 20.6406 230.905 20.7898 230.422 21.0881C229.939 21.3793 229.698 21.7699 229.698 22.2599C229.698 22.6506 229.854 22.9808 230.167 23.2507C230.479 23.5206 231.015 23.7372 231.775 23.9006L234.737 24.4972C236.328 24.8239 237.514 25.3494 238.295 26.0739C239.076 26.7983 239.467 27.75 239.467 28.929C239.467 30.0014 239.151 30.9425 238.519 31.7521C237.894 32.5618 237.034 33.1939 235.941 33.6484C234.854 34.0959 233.6 34.3196 232.18 34.3196C230.014 34.3196 228.288 33.8686 227.002 32.9666C225.724 32.0575 224.975 30.8217 224.755 29.2592L229.218 29.0249C229.353 29.6854 229.68 30.1896 230.199 30.5376C230.717 30.8786 231.381 31.049 232.191 31.049C232.986 31.049 233.625 30.8963 234.108 30.5909C234.598 30.2784 234.847 29.8771 234.854 29.3871C234.847 28.9751 234.673 28.6378 234.332 28.375C233.991 28.1051 233.466 27.8991 232.755 27.7571L229.922 27.1925C228.324 26.8729 227.134 26.3189 226.353 25.5305C225.578 24.7422 225.191 23.7372 225.191 22.5156C225.191 21.4645 225.475 20.5589 226.044 19.799C226.619 19.0391 227.425 18.4531 228.462 18.0412C229.506 17.6293 230.728 17.4233 232.127 17.4233C234.194 17.4233 235.82 17.8601 237.006 18.7337C238.199 19.6072 238.895 20.7969 239.094 22.3026Z" fill="white"/>
<path d="M242.282 34V30.6761L250.048 23.4851C250.709 22.8459 251.263 22.2706 251.71 21.7592C252.165 21.2479 252.509 20.7472 252.744 20.2571C252.978 19.7599 253.095 19.2237 253.095 18.6484C253.095 18.0092 252.95 17.4588 252.659 16.9972C252.367 16.5284 251.97 16.1697 251.465 15.9212C250.961 15.6655 250.389 15.5376 249.75 15.5376C249.083 15.5376 248.5 15.6726 248.003 15.9425C247.506 16.2124 247.122 16.5994 246.852 17.1037C246.583 17.608 246.448 18.2081 246.448 18.9041H242.069C242.069 17.4766 242.392 16.2372 243.039 15.1861C243.685 14.1349 244.59 13.3217 245.755 12.7464C246.92 12.1712 248.262 11.8835 249.782 11.8835C251.345 11.8835 252.705 12.1605 253.862 12.7145C255.027 13.2614 255.933 14.0213 256.579 14.9943C257.225 15.9673 257.548 17.0824 257.548 18.3395C257.548 19.1634 257.385 19.9766 257.058 20.7791C256.739 21.5817 256.167 22.473 255.343 23.4531C254.519 24.4261 253.358 25.5945 251.86 26.9581L248.674 30.0795V30.2287H257.836V34H242.282Z" fill="#20B46A"/>
<path d="M8.09204 38.0257C8.73132 37.0607 10.5 37.3551 10.7557 37.3987C11.8212 37.5895 12.3539 38.1293 13.9521 39.3505C14.8471 40.0265 15.7847 40.648 16.6957 41.3077C18.8266 42.8669 22.6409 43.5484 25.9439 42.7361C30.3655 41.6457 34.686 36.8862 34.6487 31.6525C34.5584 28.7272 33.392 25.9447 31.3831 23.8617C30.3176 22.9077 29.2521 22.3298 27.0306 21.6319L16.3334 18.29C13.6697 17.4558 13.105 16.3545 12.7055 15.6949C11.395 13.5414 12.0396 10.9408 12.3432 9.9377C13.1007 8.43528 14.078 7.06009 15.2413 5.8597C15.2413 5.8597 21.9484 -1.02599 37.0034 2.18515C38.511 2.50136 40.0559 3.07925 40.7325 4.4095C40.8284 4.60032 41.2386 5.42356 40.9136 5.9851C40.3383 6.99369 37.8131 6.45941 36.6518 6.26859C30.9835 5.32542 23.179 6.78107 21.6021 10.3139C20.8456 12.004 21.6447 13.8903 21.7832 14.2065C23.6638 18.6116 29.934 17.3468 34.4782 20.7051C39.9174 24.7231 42.3999 34.9945 38.6495 41.4931C33.5086 50.396 18.4057 49.1529 11.4429 43.7174C10.3394 42.854 9.34451 41.8542 8.48093 40.7407C8.1826 40.1846 7.53267 38.8762 8.09204 38.0257Z" fill="white"/>
<path d="M0 0.560624V49.9872C6.52583 50.1852 12.9201 48.0834 18.1129 44.0338C20.1266 42.4364 27.457 36.4012 28.4479 25.8464C28.6876 23.3385 29.1884 13.9504 22.2842 6.73213C13.4568 -2.50332 0.687224 0.391617 0 0.560624Z" fill="white"/>
<path d="M4.1709 5.24365V40.6807C8.68378 40.7701 13.0494 39.0367 16.3225 35.8558C21.5326 30.6875 21.4314 24.0253 21.3994 22.9568C21.1793 19.9232 20.2512 16.9879 18.6932 14.3973C14.0584 6.76473 5.56133 5.43992 4.1709 5.24365Z" fill="#0E0E0E"/>
<path d="M32.0427 7.78872C32.1931 7.5251 34.9984 2.81468 41.0486 2.31728C43.3202 2.16778 45.5916 2.6097 47.5671 3.58555C49.5426 4.56139 51.1309 6.02598 52.1252 7.78872C48.5853 18.3304 45.0416 28.8704 41.494 39.4087L58.0366 41.3138V46.3923C49.4438 47.7495 40.6355 47.7495 32.0427 46.3923C34.582 40.8462 37.0749 34.8724 39.429 28.4857C41.6212 22.5169 43.4779 16.7868 45.0396 11.3402C44.9587 11.0119 44.1662 7.99764 41.3436 7.02273C38.3069 5.9732 33.8936 7.62955 32.0427 11.4695V7.78872Z" fill="#20B46A"/>
</svg>
